{
 "id": 836229,
 "bug_id": 202313,
 "attachment_id": 159853,
 "creation_time": "2015-08-14T00:46:08Z",
 "creator": "jbeich@FreeBSD.org",
 "text": "Created attachment 159853\nv0\n\nmultimedia/openh264 doesn't install h264enc/h264dec binaries, so testing the implementation before was a bit non-trivial.\n\n$ ffmpeg -codecs 2\u003e/dev/null | fgrep -i 264\n DEV.LS h264                 H.264 / AVC / MPEG-4 AVC / MPEG-4 part 10 (decoders: h264 h264_vdpau ) (encoders: libx264 libx264rgb libopenh264 )\n\n$ ffmpeg -f x11grab -i :0 -codec:v libopenh264 foo.mp4\n[...]\nInput #0, x11grab, from ':0':\n  Duration: N/A, start: 1439513005.309265, bitrate: N/A\n    Stream #0:0: Video: rawvideo (BGR[0] / 0x524742), bgr0, 640x480, 29.97 fps, 29.97 tbr, 1000k tbn, 29.97 tbc\n[OpenH264] this = 0x0x80ca67090, Warning:bEnableFrameSkip = 0,bitrate can't be controlled for RC_QUALITY_MODE,RC_BITRATE_MODE and RC_TIMESTAMP_MODE without enabling skip frame.\nOutput #0, mp4, to 'foo.mp4':\n  Metadata:\n    encoder         : Lavf56.36.100\n    Stream #0:0: Video: h264 (libopenh264) ([33][0][0][0] / 0x0021), yuv420p, 640x480, q=2-31, 200 kb/s, 29.97 fps, 30k tbn, 29.97 tbc\n    Metadata:\n      encoder         : Lavc56.41.100 libopenh264\nStream mapping:\n  Stream #0:0 -\u003e #0:0 (rawvideo (native) -\u003e h264 (libopenh264))\nPress [q] to stop, [?] for help\nframe=  249 fps= 30 q=-1.0 Lsize=     617kB time=00:00:08.30 bitrate= 608.4kbits/s"
}